<svg width="455" height="455" viewBox="0 0 455 455" fill="none" xmlns="http://www.w3.org/2000/svg">
<g filter="url(#filter0_d_1_91)">
<path d="M111.612 262.558L192.397 343.389L340.682 195.104L259.851 114.319L111.612 262.558ZM434.617 151.606L400.241 117.208C391.51 121.979 381.469 123.793 371.62 122.379C361.771 120.966 352.646 116.4 345.609 109.366C338.572 102.332 334.003 93.2078 332.586 83.3597C331.169 73.5117 332.979 63.4695 337.747 54.7366L303.372 20.3386C299.039 16.0429 293.184 13.6328 287.083 13.6328C280.981 13.6328 275.127 16.0429 270.794 20.3386L20.3163 270.816C16.0207 275.149 13.6105 281.004 13.6105 287.105C13.6105 293.207 16.0207 299.061 20.3163 303.394L54.7143 337.747C63.4498 332.963 73.5007 331.142 83.3594 332.554C93.218 333.967 102.353 338.538 109.394 345.581C116.435 352.625 121.002 361.761 122.411 371.62C123.82 381.48 121.995 391.53 117.209 400.264L151.607 434.616C155.934 438.923 161.79 441.34 167.896 441.34C174.001 441.34 179.857 438.923 184.185 434.616L434.617 184.184C438.923 179.857 441.341 174 441.341 167.895C441.341 161.79 438.923 155.933 434.617 151.606ZM192.397 380.357L74.6433 262.558L259.874 77.3501L377.628 195.104L192.397 380.357Z" fill="#2636CD"/>
</g>
<defs>
<filter id="filter0_d_1_91" x="9.61053" y="13.6328" width="435.73" height="435.708" filterUnits="userSpaceOnUse" color-interpolation-filters="sRGB">
<feFlood flood-opacity="0" result="BackgroundImageFix"/>
<feColorMatrix in="SourceAlpha" type="matrix" values="0 0 0 0 0 0 0 0 0 0 0 0 0 0 0 0 0 0 127 0" result="hardAlpha"/>
<feOffset dy="4"/>
<feGaussianBlur stdDeviation="2"/>
<feComposite in2="hardAlpha" operator="out"/>
<feColorMatrix type="matrix" values="0 0 0 0 0 0 0 0 0 0 0 0 0 0 0 0 0 0 0.25 0"/>
<feBlend mode="normal" in2="BackgroundImageFix" result="effect1_dropShadow_1_91"/>
<feBlend mode="normal" in="SourceGraphic" in2="effect1_dropShadow_1_91" result="shape"/>
</filter>
</defs>
</svg>
