<svg viewBox="0 0 55 62" fill="none" xmlns="http://www.w3.org/2000/svg">
<path d="M33.76 14.3918C34.6386 11.1956 31.2631 9.43225 29.8759 11.1956C28.0726 7.66885 24.2348 10.2037 24.2348 10.2037C24.2348 10.2037 22.154 7.44842 19.4721 9.98331C18.5011 8.82608 15.588 8.55055 15.6805 14.1714C12.4438 14.502 12.49 19.9024 13.9696 20.729L35.3322 22.9333C37.4129 21.9414 38.199 15.3286 33.76 14.3918Z" fill="#EDD8B4"/>
<path d="M20.2582 10.4792C20.4894 8.1096 16.6516 8.55045 17.2527 11.1404C15.8192 11.7466 16.8365 14.3366 17.9925 13.6753C18.0387 15.7143 20.9056 15.2183 20.4894 13.0692C21.5529 13.6202 22.4777 10.2036 20.2582 10.4792Z" fill="#FFF8D6"/>
<path d="M19.7496 11.1956C20.1657 10.3139 18.7785 9.322 18.6861 10.9201C17.8538 10.0935 16.7903 12.4079 18.2699 12.4631C17.5763 13.7305 19.3797 14.502 19.7033 13.2896C21.1367 13.1243 20.7206 10.9201 19.7496 11.1956Z" fill="#EDD8B4"/>
<path d="M19.7958 12.0773C19.2409 11.912 19.3334 11.8569 19.3796 11.361C19.4721 10.4241 19.0097 10.4241 19.056 11.3058C19.1022 11.8569 19.0097 12.0773 18.5473 11.6365C17.9462 11.1405 17.9 11.6916 18.4549 11.912C18.9635 12.1875 18.7785 12.0222 18.7785 12.7937C18.7785 13.3999 19.056 13.5652 19.1022 12.7937C19.1484 12.0222 19.1022 12.0773 19.6108 12.4631C20.1195 12.7937 20.3044 12.2427 19.7958 12.0773Z" fill="#C9AE81"/>
<path d="M18.4549 16.5409C19.5184 15.4388 16.929 12.463 15.9579 15.4939C13.9234 14.006 12.9524 18.4696 14.9407 19.7371C15.9117 20.3983 21.5067 19.9575 18.4549 16.5409Z" fill="#FFF8D6"/>
<path d="M16.3279 16.5409C15.773 15.549 14.1084 16.8164 15.4494 17.8083C12.5363 19.4064 20.7206 20.5637 18.1775 17.643C18.8248 15.6592 16.6516 15.1081 16.3279 16.5409Z" fill="#EDD8B4"/>
<path d="M17.1602 16.9267C16.6978 17.5328 16.6978 17.4226 16.2816 17.1471C15.4956 16.5409 15.2181 17.4777 16.0967 17.9186C16.6053 18.139 16.5591 18.2492 17.2527 18.6901C17.8075 19.0207 18.085 18.6901 17.3914 18.2492C16.6978 17.8084 16.744 17.9186 17.3914 17.4226C17.9925 16.8165 17.5763 16.3205 17.1602 16.9267Z" fill="#C9AE81"/>
<path d="M35.887 18.0839C36.8581 17.092 34.5461 14.4469 33.6675 17.1471C31.8642 15.8246 30.2921 20.4535 32.7428 20.9494C32.5578 22.9333 35.1472 22.9333 35.1472 21.2801C36.8118 22.2169 37.8753 18.635 35.887 18.0839Z" fill="#FFF8D6"/>
<path d="M33.9912 18.0839C33.4826 17.2022 31.9567 18.3043 33.2051 19.186C32.0954 19.7922 33.4826 22.0516 34.2686 20.3433C35.0085 21.7209 36.4881 19.9575 35.7021 19.0207C36.2107 17.3124 34.2686 16.8165 33.9912 18.0839Z" fill="#EDD8B4"/>
<path d="M34.731 18.4146C34.3149 18.9656 34.3149 18.8554 33.945 18.5799C33.2514 18.0288 32.9739 18.5248 33.76 18.9105C34.2224 19.1309 34.3611 19.2963 33.76 19.682C33.0664 20.1228 33.5288 20.4535 33.945 19.9575C34.4074 19.4065 34.1762 19.5718 34.7773 19.9575C35.2859 20.2331 35.5171 19.9575 34.916 19.5718C34.3149 19.186 34.3149 19.2411 34.916 18.8003C35.4709 18.3594 35.1009 17.8635 34.731 18.4146Z" fill="#C9AE81"/>
<path d="M26.7316 11.6916C27.7489 10.6446 25.2982 7.88924 24.4197 10.6997C22.5238 9.322 20.9055 14.1162 23.4486 14.6673C23.2637 16.7062 25.9456 16.7613 25.9918 14.9979C27.7026 15.9899 28.7661 12.2426 26.7316 11.6916Z" fill="#FFF8D6"/>
<path d="M24.7434 11.6915C24.2347 10.7547 22.6626 11.912 23.9111 12.8488C22.7551 13.4549 24.1885 15.8245 25.0208 14.0611C25.7606 15.4939 27.3328 13.6754 26.5005 12.6835C27.1016 10.865 25.0208 10.369 24.7434 11.6915Z" fill="#EDD8B4"/>
<path d="M25.4833 12.0222C25.0209 12.6284 25.0671 12.5182 24.651 12.2427C23.9111 11.6916 23.6337 12.1876 24.466 12.5733C24.9284 12.7937 25.0671 13.0141 24.5122 13.3448C23.7724 13.8407 24.2348 14.1714 24.6972 13.6203C25.1596 13.0693 24.9284 13.2346 25.5757 13.6203C26.0844 13.951 26.3618 13.6203 25.7145 13.2346C25.0671 12.7937 25.1133 12.9039 25.7145 12.4631C26.2693 11.9671 25.8994 11.5263 25.4833 12.0222Z" fill="#C9AE81"/>
<path d="M22.94 16.7062C23.2175 15.1081 19.7033 14.502 20.4893 17.5879C18.1774 17.8084 19.1484 21.6658 21.8303 21.6658C25.6219 21.6107 24.9283 15.6592 22.94 16.7062Z" fill="#FFF8D6"/>
<path d="M20.9055 18.1941C20.1657 22.5475 25.4832 20.9494 23.2637 17.7532C22.8013 15.7694 21.183 16.7613 20.9055 18.1941Z" fill="#EDD8B4"/>
<path d="M22.0615 17.8635C22.0152 18.6901 21.5066 18.3044 21.1367 18.6901C20.0732 19.7922 22.94 20.8392 23.4024 18.8554C23.4949 18.3595 22.2002 18.9105 22.4314 18.0839C22.7088 17.2573 22.154 17.1471 22.0615 17.8635Z" fill="#C9AE81"/>
<path d="M31.1244 12.959C31.4019 11.3609 27.9339 10.8099 28.72 13.8407C26.4543 14.0612 27.6565 19.186 30.0147 17.8084C30.9395 19.6269 33.159 17.7533 32.2804 16.3205C34.1762 15.8246 33.1127 11.9671 31.1244 12.959Z" fill="#FFF8D6"/>
<path d="M29.506 14.3918C28.5813 14.0061 27.9339 16.1001 29.4598 15.9348C28.8587 17.2573 31.2631 18.1941 30.9857 16.1552C32.3729 16.8165 32.6966 14.1714 31.4943 14.0061C30.9857 12.0222 29.0437 13.0692 29.506 14.3918Z" fill="#EDD8B4"/>
<path d="M30.3383 14.1162C30.2921 14.9428 30.2459 14.8326 29.7835 14.8326C28.9049 14.8877 28.9512 15.4939 29.7835 15.2735C30.2921 15.1081 30.5233 15.1632 30.1996 15.9347C29.8297 16.8715 30.4308 16.8164 30.5233 15.9898C30.6158 15.1632 30.5233 15.4939 31.2169 15.3837C31.818 15.2735 31.8642 14.8326 31.1244 14.9428C30.3846 15.053 30.4771 15.1081 30.7083 14.2815C30.9395 13.5101 30.3846 13.3998 30.3383 14.1162Z" fill="#C9AE81"/>
<path d="M13.7847 20.1779L17.4376 42H20.4431L17.9924 20.1779C17.8075 17.092 13.4148 17.092 13.7847 20.1779Z" fill="#ED4C5C"/>
<path d="M17.9924 20.1779L20.4431 42H23.4487L22.2002 20.1779C22.2002 17.092 17.8075 17.092 17.9924 20.1779Z" fill="#F9F9F9"/>
<path d="M22.2003 20.1779L23.4487 42H26.4543V20.1779C26.593 17.092 22.2003 17.092 22.2003 20.1779Z" fill="#ED4C5C"/>
<path d="M26.4542 20.1779V42H29.4135L30.662 20.1779C30.9394 17.092 26.5929 17.092 26.4542 20.1779Z" fill="#F9F9F9"/>
<path d="M29.4135 42L31.3093 40.457L32.1879 20.8943C32.4653 18.5247 30.8007 17.643 30.6157 20.1779L29.4135 42Z" fill="#C94747"/>
<path d="M32.9277 39.1345L33.8063 21.6107C34.1299 19.4065 32.5116 18.5248 32.2341 20.8943L31.3556 40.457L32.9277 39.1345Z" fill="#E8E8E8"/>
<path d="M34.2687 38.0874L35.3322 22.3822C35.7021 20.3432 34.13 19.4615 33.8063 21.6658L32.9277 39.1896L34.2687 38.0874Z" fill="#C94747"/>
<path d="M35.1472 37.3711L36.2107 23.0435C36.3031 21.4454 35.4708 20.8943 35.3321 22.3822L34.2686 38.0875L35.1472 37.3711Z" fill="#E8E8E8"/>
<g clip-path="url(#clip0_1_135)">
<g filter="url(#filter0_d_1_135)">
<path d="M22.2951 9.39978C22.7687 9.39978 23.2228 9.55078 23.5577 9.81955C23.8925 10.0883 24.0806 10.4529 24.0806 10.833C24.0806 11.0981 23.9824 11.3417 23.8306 11.5495C23.8306 11.5495 23.1879 11.4062 22.2951 11.4062C21.4024 11.4062 20.7596 11.5495 20.7596 11.5495C20.6079 11.3417 20.5097 11.0981 20.5097 10.833C20.5097 10.4529 20.6978 10.0883 21.0326 9.81955C21.3674 9.55078 21.8216 9.39978 22.2951 9.39978ZM27.6516 9.39978C28.6425 9.39978 29.4371 10.0375 29.4371 10.833C29.4371 11.0981 29.3389 11.3417 29.1871 11.5495C29.1871 11.5495 28.5443 11.4062 27.6516 11.4062C26.7588 11.4062 26.1161 11.5495 26.1161 11.5495C25.9643 11.3417 25.8661 11.0981 25.8661 10.833C25.8661 10.0375 26.6606 9.39978 27.6516 9.39978ZM24.9734 19.2171C26.5927 19.2181 28.1718 18.8123 29.4894 18.0567C30.807 17.3011 31.797 16.2335 32.3206 15.0035L31.1422 14.6739C30.2405 16.795 27.7587 18.2138 24.9734 18.2138C22.188 18.2138 19.7062 16.795 18.8045 14.6739L17.6261 15.0035C18.1497 16.2335 19.1397 17.3011 20.4573 18.0567C21.7749 18.8123 23.354 19.2181 24.9734 19.2171Z" fill="#1A1F55"/>
</g>
</g>
<defs>
<filter id="filter0_d_1_135" x="13.6261" y="9.39978" width="22.6945" height="17.8173" filterUnits="userSpaceOnUse" color-interpolation-filters="sRGB">
<feFlood flood-opacity="0" result="BackgroundImageFix"/>
<feColorMatrix in="SourceAlpha" type="matrix" values="0 0 0 0 0 0 0 0 0 0 0 0 0 0 0 0 0 0 127 0" result="hardAlpha"/>
<feOffset dy="4"/>
<feGaussianBlur stdDeviation="2"/>
<feComposite in2="hardAlpha" operator="out"/>
<feColorMatrix type="matrix" values="0 0 0 0 0 0 0 0 0 0 0 0 0 0 0 0 0 0 0.25 0"/>
<feBlend mode="normal" in2="BackgroundImageFix" result="effect1_dropShadow_1_135"/>
<feBlend mode="normal" in="SourceGraphic" in2="effect1_dropShadow_1_135" result="shape"/>
</filter>
<clipPath id="clip0_1_135">
<rect width="18.2321" height="14.6168" fill="white" transform="translate(15.8573 7)"/>
</clipPath>
</defs>
</svg>
