<svg width="568" height="620" viewBox="0 0 568 620" fill="none" xmlns="http://www.w3.org/2000/svg">
<g filter="url(#filter0_d_1_101)">
<path d="M408.997 357.3H443.99V392H303.948C207.267 392 128.897 314.324 128.897 218.5C128.897 122.676 207.267 45 303.948 45C400.629 45 479 122.676 479 218.5C479.022 245.437 472.707 272.008 460.555 296.103C448.403 320.197 430.749 341.151 408.997 357.3ZM303.948 183.8C313.234 183.8 322.139 180.144 328.704 173.637C335.27 167.129 338.959 158.303 338.959 149.1C338.959 139.897 335.27 131.071 328.704 124.563C322.139 118.056 313.234 114.4 303.948 114.4C294.663 114.4 285.758 118.056 279.192 124.563C272.627 131.071 268.938 139.897 268.938 149.1C268.938 158.303 272.627 167.129 279.192 173.637C285.758 180.144 294.663 183.8 303.948 183.8ZM233.928 253.2C243.213 253.2 252.118 249.544 258.684 243.037C265.249 236.529 268.938 227.703 268.938 218.5C268.938 209.297 265.249 200.471 258.684 193.963C252.118 187.456 243.213 183.8 233.928 183.8C224.642 183.8 215.737 187.456 209.172 193.963C202.606 200.471 198.917 209.297 198.917 218.5C198.917 227.703 202.606 236.529 209.172 243.037C215.737 249.544 224.642 253.2 233.928 253.2ZM373.969 253.2C383.254 253.2 392.159 249.544 398.725 243.037C405.291 236.529 408.979 227.703 408.979 218.5C408.979 209.297 405.291 200.471 398.725 193.963C392.159 187.456 383.254 183.8 373.969 183.8C364.684 183.8 355.779 187.456 349.213 193.963C342.647 200.471 338.959 209.297 338.959 218.5C338.959 227.703 342.647 236.529 349.213 243.037C355.779 249.544 364.684 253.2 373.969 253.2ZM303.948 322.6C313.234 322.6 322.139 318.944 328.704 312.437C335.27 305.929 338.959 297.103 338.959 287.9C338.959 278.697 335.27 269.871 328.704 263.363C322.139 256.856 313.234 253.2 303.948 253.2C294.663 253.2 285.758 256.856 279.192 263.363C272.627 269.871 268.938 278.697 268.938 287.9C268.938 297.103 272.627 305.929 279.192 312.437C285.758 318.944 294.663 322.6 303.948 322.6Z" fill="#ED4C5C"/>
</g>
<g filter="url(#filter1_d_1_101)">
<path d="M360.568 494.3H395.56V529H255.519C158.838 529 80.4675 451.324 80.4675 355.5C80.4675 259.676 158.838 182 255.519 182C352.2 182 430.571 259.676 430.571 355.5C430.593 382.437 424.278 409.008 412.126 433.103C399.974 457.197 382.32 478.151 360.568 494.3ZM255.519 320.8C264.804 320.8 273.709 317.144 280.275 310.637C286.841 304.129 290.529 295.303 290.529 286.1C290.529 276.897 286.841 268.071 280.275 261.563C273.709 255.056 264.804 251.4 255.519 251.4C246.234 251.4 237.329 255.056 230.763 261.563C224.197 268.071 220.509 276.897 220.509 286.1C220.509 295.303 224.197 304.129 230.763 310.637C237.329 317.144 246.234 320.8 255.519 320.8ZM185.498 390.2C194.784 390.2 203.689 386.544 210.254 380.037C216.82 373.529 220.509 364.703 220.509 355.5C220.509 346.297 216.82 337.471 210.254 330.963C203.689 324.456 194.784 320.8 185.498 320.8C176.213 320.8 167.308 324.456 160.742 330.963C154.177 337.471 150.488 346.297 150.488 355.5C150.488 364.703 154.177 373.529 160.742 380.037C167.308 386.544 176.213 390.2 185.498 390.2ZM325.54 390.2C334.825 390.2 343.73 386.544 350.296 380.037C356.861 373.529 360.55 364.703 360.55 355.5C360.55 346.297 356.861 337.471 350.296 330.963C343.73 324.456 334.825 320.8 325.54 320.8C316.254 320.8 307.349 324.456 300.784 330.963C294.218 337.471 290.529 346.297 290.529 355.5C290.529 364.703 294.218 373.529 300.784 380.037C307.349 386.544 316.254 390.2 325.54 390.2ZM255.519 459.6C264.804 459.6 273.709 455.944 280.275 449.437C286.841 442.929 290.529 434.103 290.529 424.9C290.529 415.697 286.841 406.871 280.275 400.363C273.709 393.856 264.804 390.2 255.519 390.2C246.234 390.2 237.329 393.856 230.763 400.363C224.197 406.871 220.509 415.697 220.509 424.9C220.509 434.103 224.197 442.929 230.763 449.437C237.329 455.944 246.234 459.6 255.519 459.6Z" fill="#EDD8B4"/>
</g>
<g filter="url(#filter2_d_1_101)">
<path d="M344.424 545.3H379.417V580H239.376C142.695 580 64.3244 502.324 64.3244 406.5C64.3244 310.676 142.695 233 239.376 233C336.057 233 414.428 310.676 414.428 406.5C414.45 433.437 408.134 460.008 395.983 484.103C383.831 508.197 366.177 529.151 344.424 545.3ZM239.376 371.8C248.661 371.8 257.566 368.144 264.132 361.637C270.698 355.129 274.386 346.303 274.386 337.1C274.386 327.897 270.698 319.071 264.132 312.563C257.566 306.056 248.661 302.4 239.376 302.4C230.091 302.4 221.186 306.056 214.62 312.563C208.054 319.071 204.366 327.897 204.366 337.1C204.366 346.303 208.054 355.129 214.62 361.637C221.186 368.144 230.091 371.8 239.376 371.8ZM169.355 441.2C178.641 441.2 187.546 437.544 194.111 431.037C200.677 424.529 204.366 415.703 204.366 406.5C204.366 397.297 200.677 388.471 194.111 381.963C187.546 375.456 178.641 371.8 169.355 371.8C160.07 371.8 151.165 375.456 144.599 381.963C138.034 388.471 134.345 397.297 134.345 406.5C134.345 415.703 138.034 424.529 144.599 431.037C151.165 437.544 160.07 441.2 169.355 441.2ZM309.397 441.2C318.682 441.2 327.587 437.544 334.153 431.037C340.718 424.529 344.407 415.703 344.407 406.5C344.407 397.297 340.718 388.471 334.153 381.963C327.587 375.456 318.682 371.8 309.397 371.8C300.111 371.8 291.206 375.456 284.641 381.963C278.075 388.471 274.386 397.297 274.386 406.5C274.386 415.703 278.075 424.529 284.641 431.037C291.206 437.544 300.111 441.2 309.397 441.2ZM239.376 510.6C248.661 510.6 257.566 506.944 264.132 500.437C270.698 493.929 274.386 485.103 274.386 475.9C274.386 466.697 270.698 457.871 264.132 451.363C257.566 444.856 248.661 441.2 239.376 441.2C230.091 441.2 221.186 444.856 214.62 451.363C208.054 457.871 204.366 466.697 204.366 475.9C204.366 485.103 208.054 493.929 214.62 500.437C221.186 506.944 230.091 510.6 239.376 510.6Z" fill="#FFF8D6"/>
</g>
<defs>
<filter id="filter0_d_1_101" x="124.897" y="45" width="358.103" height="355" filterUnits="userSpaceOnUse" color-interpolation-filters="sRGB">
<feFlood flood-opacity="0" result="BackgroundImageFix"/>
<feColorMatrix in="SourceAlpha" type="matrix" values="0 0 0 0 0 0 0 0 0 0 0 0 0 0 0 0 0 0 127 0" result="hardAlpha"/>
<feOffset dy="4"/>
<feGaussianBlur stdDeviation="2"/>
<feComposite in2="hardAlpha" operator="out"/>
<feColorMatrix type="matrix" values="0 0 0 0 0 0 0 0 0 0 0 0 0 0 0 0 0 0 0.25 0"/>
<feBlend mode="normal" in2="BackgroundImageFix" result="effect1_dropShadow_1_101"/>
<feBlend mode="normal" in="SourceGraphic" in2="effect1_dropShadow_1_101" result="shape"/>
</filter>
<filter id="filter1_d_1_101" x="76.4675" y="182" width="358.103" height="355" filterUnits="userSpaceOnUse" color-interpolation-filters="sRGB">
<feFlood flood-opacity="0" result="BackgroundImageFix"/>
<feColorMatrix in="SourceAlpha" type="matrix" values="0 0 0 0 0 0 0 0 0 0 0 0 0 0 0 0 0 0 127 0" result="hardAlpha"/>
<feOffset dy="4"/>
<feGaussianBlur stdDeviation="2"/>
<feComposite in2="hardAlpha" operator="out"/>
<feColorMatrix type="matrix" values="0 0 0 0 0 0 0 0 0 0 0 0 0 0 0 0 0 0 0.25 0"/>
<feBlend mode="normal" in2="BackgroundImageFix" result="effect1_dropShadow_1_101"/>
<feBlend mode="normal" in="SourceGraphic" in2="effect1_dropShadow_1_101" result="shape"/>
</filter>
<filter id="filter2_d_1_101" x="60.3244" y="233" width="358.103" height="355" filterUnits="userSpaceOnUse" color-interpolation-filters="sRGB">
<feFlood flood-opacity="0" result="BackgroundImageFix"/>
<feColorMatrix in="SourceAlpha" type="matrix" values="0 0 0 0 0 0 0 0 0 0 0 0 0 0 0 0 0 0 127 0" result="hardAlpha"/>
<feOffset dy="4"/>
<feGaussianBlur stdDeviation="2"/>
<feComposite in2="hardAlpha" operator="out"/>
<feColorMatrix type="matrix" values="0 0 0 0 0 0 0 0 0 0 0 0 0 0 0 0 0 0 0.25 0"/>
<feBlend mode="normal" in2="BackgroundImageFix" result="effect1_dropShadow_1_101"/>
<feBlend mode="normal" in="SourceGraphic" in2="effect1_dropShadow_1_101" result="shape"/>
</filter>
</defs>
</svg>
