<svg width="450" height="450" viewBox="0 0 450 450" fill="none" xmlns="http://www.w3.org/2000/svg">
<path d="M447.68 210.059C446.379 175.078 447.399 140.063 441.774 105.399C437.449 78.5745 428.274 57.9377 400.324 52.137C400.324 52.137 399.27 51.6448 392.977 50.9416C388.301 50.3088 383.555 49.9573 378.809 49.7815C356.484 48.3401 311.274 46.7932 220.184 46.7932C145.195 46.7932 102.41 48.1995 78.4337 49.5354C69.6447 49.7112 60.715 50.2034 52.172 51.7151C50.3439 51.9963 49.6408 52.137 49.6408 52.137C21.7267 57.9377 12.5509 78.5393 8.2267 105.399C2.6017 140.063 3.62123 175.078 2.32045 210.059C0.668108 254.602 -0.456892 299.215 4.71108 343.582C5.87123 353.391 7.91029 364.571 11.6369 373.711C22.1486 399.762 58.5353 399.199 80.6486 400.676C118.652 403.242 156.902 403.383 194.977 403.031C204.996 402.961 215.016 402.785 225.035 402.539C235.055 402.75 245.109 402.926 255.094 403.031C293.168 403.383 331.418 403.207 369.422 400.676C391.5 399.199 427.887 399.762 438.434 373.711C442.125 364.571 444.164 353.391 445.324 343.582C450.457 299.215 449.367 254.602 447.68 210.059Z" fill="#2F2F2F"/>
<path d="M69.4334 369.07C61.8397 369.281 54.2811 369.844 46.6873 369.914C23.5194 370.09 26.4373 344.074 25.3123 326.32C24.7498 317.531 24.5038 308.672 24.8905 299.848C25.0311 296.543 24.8202 278.332 30.3045 278.403C33.5038 278.438 36.6678 278.332 39.867 278.156C42.2225 278.016 43.91 277.453 45.2811 279.281L45.6327 279.809C53.8241 293.942 58.7459 311.168 62.4373 327.199C63.3866 331.067 70.1717 369.035 69.4334 369.07Z" fill="#ED6C30"/>
<path d="M99.4921 100.16C97.8398 112.219 95.5195 123.891 92.8476 135.211C84.0937 172.336 74.1796 208.406 60.9257 238.359C58.3593 244.16 55.582 249.644 52.664 255.094C51.6093 257.133 51.1171 258.82 48.9726 259.558L44.4374 259.207C43.9804 257.344 45.0351 254.637 45.4218 252.703C45.8437 250.242 46.371 247.781 46.7929 245.25C47.7421 239.625 48.2343 233.824 47.7421 228.023C47.6366 226.793 48.1288 219.058 46.9335 218.601C44.8945 217.758 41.1327 230.273 40.746 231.75C40.0077 234.562 39.164 237.445 38.1445 240.117C36.7031 243.914 35.4023 247.676 33.8554 251.367C32.871 253.723 31.8163 255.516 30.6562 257.695C29.9531 258.996 29.6718 259.84 28.1249 260.086C26.9999 260.262 25.4882 260.191 24.5741 259.383C23.3788 258.223 23.8359 256.394 23.871 254.812C23.9413 250.664 24.2226 246.48 24.328 242.226C24.539 234.492 24.8202 226.617 25.1015 218.601C25.6991 199.969 26.6132 180.598 28.0195 160.418C29.3554 140.836 30.2343 119.883 34.7343 99.1757C35.7187 94.7811 36.2812 84.4452 40.9921 83.5311L41.6601 83.4608H41.0624C42.8906 83.4257 44.6484 82.4061 46.4765 82.2655C49.5351 82.0194 52.5585 82.0194 55.6171 81.8436C61.5937 81.5272 67.5702 81.1405 73.5116 81.1405C79.9101 81.1757 86.0976 81.703 92.496 81.703C94.5702 81.703 98.9296 81.4569 100.125 83.8124C101.883 87.4686 100.019 96.3632 99.4921 100.16Z" fill="#ED6C30"/>
<path d="M425.18 326.32C424.09 344.039 427.008 370.09 403.805 369.914C396.246 369.844 391.781 369.281 384.223 369.07C383.484 369.07 387.141 331.102 388.02 327.234C391.711 311.203 396.598 293.976 404.824 279.844L405.176 279.316C406.547 277.488 408.234 278.051 410.59 278.191C413.754 278.367 416.953 278.473 420.117 278.437C425.602 278.367 425.391 296.613 425.566 299.883C426.024 308.672 425.707 317.531 425.18 326.32Z" fill="#ED6C30"/>
<path d="M425.953 259.383C425.039 260.227 423.527 260.262 422.402 260.086C420.891 259.84 420.574 258.961 419.906 257.695C418.746 255.516 417.691 253.687 416.707 251.367C415.125 247.676 413.859 243.914 412.418 240.117C411.398 237.445 410.555 234.562 409.816 231.75C409.43 230.273 405.668 217.758 403.664 218.602C402.504 219.094 402.961 226.793 402.855 228.023C402.363 233.824 402.855 239.66 403.805 245.25C404.227 247.746 404.754 250.242 405.176 252.703C405.527 254.637 406.582 257.344 406.125 259.207L401.59 259.559C399.445 258.82 398.953 257.133 397.898 255.094C395.016 249.645 392.203 244.16 389.637 238.359C376.348 208.406 366.469 172.336 357.68 135.211C355.008 123.891 352.687 112.219 351.035 100.16C350.508 96.3281 348.68 87.4688 350.437 83.8828C351.598 81.4922 355.992 81.7734 358.066 81.7734C364.43 81.7734 370.652 81.2461 377.051 81.2109C383.027 81.2109 389.004 81.5625 394.945 81.9141C398.004 82.0898 401.062 82.0898 404.086 82.3359C405.949 82.4766 407.637 83.4961 409.5 83.5312H408.902L409.57 83.6016C414.316 84.5156 414.879 94.8516 415.828 99.2461C420.328 119.953 421.242 140.906 422.543 160.488C423.879 180.668 424.863 200.039 425.461 218.672C425.707 226.687 425.988 234.562 426.199 242.297C426.34 246.551 426.586 250.734 426.656 254.883C426.691 256.395 427.148 258.223 425.953 259.383Z" fill="#ED6C30"/>
<path d="M344.355 243.281V139.605C344.355 139.605 345.199 133.453 336.094 135.984C331.523 137.25 293.344 147.973 222.539 147.973C151.664 147.973 119.109 137.25 114.574 135.984C105.469 133.453 106.312 139.605 106.312 139.605V283.957C106.312 283.957 105.469 290.109 114.574 287.578C119.109 286.313 172.23 274.957 225.352 274.957C278.473 274.957 331.559 286.313 336.129 287.578C345.234 290.109 344.391 283.957 344.391 283.957V243.281H344.355Z" fill="white"/>
<path d="M120.481 81.4572C120.691 98.6134 133.981 112.465 150.398 112.465C166.816 112.465 180.106 98.6134 180.316 81.4572H120.481Z" fill="#ED6C30"/>
<path d="M222.153 81.4572C222.363 98.6134 235.688 112.465 252.071 112.465C268.488 112.465 281.813 98.6134 282.024 81.4572H222.153Z" fill="#ED6C30"/>
<path d="M271.406 81.4572C271.617 98.6134 284.906 112.465 301.324 112.465C317.742 112.465 331.031 98.6134 331.242 81.4572H271.406Z" fill="#ED6C30"/>
<path d="M172.336 81.4572C172.547 98.6134 185.836 112.465 202.254 112.465C218.672 112.465 231.961 98.6134 232.207 81.4572H172.336Z" fill="#ED6C30"/>
<path d="M257.484 346.606C242.191 346.289 242.473 347.801 227.953 347.801C213.434 347.801 213.715 346.289 198.387 346.606C183.094 346.922 182.848 373.465 182.848 373.465C200.672 378.633 255.199 378.633 273.059 373.465C273.059 373.465 272.777 346.922 257.484 346.606Z" fill="#ED6C30"/>
<path d="M250.91 316.582C239.027 316.371 239.238 317.391 227.918 317.391C216.598 317.391 216.844 316.371 204.926 316.582C193.008 316.793 192.832 334.934 192.832 334.934C206.719 338.449 249.117 338.449 263.004 334.934C263.039 334.934 262.863 316.793 250.91 316.582Z" fill="#ED6C30"/>
<path d="M243.07 295.84C235.195 295.699 235.371 296.367 227.883 296.367C220.394 296.367 220.57 295.735 212.695 295.84C204.82 295.981 204.68 307.336 204.68 307.336C213.855 309.551 241.91 309.551 251.086 307.336C251.086 307.336 250.945 295.945 243.07 295.84Z" fill="#ED6C30"/>
<path d="M155.777 346.606C140.484 346.289 140.765 347.801 126.211 347.801C111.656 347.801 111.972 346.289 96.6795 346.606C81.3866 346.922 81.1053 373.465 81.1053 373.465C98.9647 378.633 153.492 378.633 171.316 373.465C171.316 373.465 171.07 346.922 155.777 346.606Z" fill="#ED6C30"/>
<path d="M163.265 316.582C151.383 316.371 151.594 317.391 140.273 317.391C128.953 317.391 129.199 316.371 117.281 316.582C105.363 316.793 105.187 334.934 105.187 334.934C119.074 338.449 161.472 338.449 175.359 334.934C175.359 334.934 175.183 316.793 163.265 316.582Z" fill="#ED6C30"/>
<path d="M172.758 295.84C164.883 295.699 165.059 296.367 157.57 296.367C150.082 296.367 150.258 295.735 142.383 295.84C134.508 295.981 134.367 307.336 134.367 307.336C143.543 309.551 171.598 309.551 180.773 307.336C180.738 307.336 180.633 295.945 172.758 295.84Z" fill="#ED6C30"/>
<path d="M298.969 346.606C314.262 346.289 313.981 347.801 328.535 347.801C343.09 347.801 342.774 346.289 358.067 346.606C373.36 346.922 373.641 373.465 373.641 373.465C355.782 378.633 301.289 378.633 283.43 373.465C283.43 373.465 283.676 346.922 298.969 346.606Z" fill="#ED6C30"/>
<path d="M291.481 316.582C303.364 316.371 303.153 317.391 314.473 317.391C325.793 317.391 325.547 316.371 337.465 316.582C349.383 316.793 349.559 334.934 349.559 334.934C335.672 338.449 293.274 338.449 279.387 334.934C279.387 334.934 279.563 316.793 291.481 316.582Z" fill="#ED6C30"/>
<path d="M281.988 295.84C289.863 295.699 289.688 296.367 297.176 296.367C304.664 296.367 304.488 295.735 312.363 295.84C320.238 295.981 320.379 307.336 320.379 307.336C311.203 309.551 283.149 309.551 273.973 307.336C273.973 307.336 274.113 295.945 281.988 295.84Z" fill="#ED6C30"/>
</svg>
