<svg width="414" height="543" viewBox="0 0 414 543" fill="none" xmlns="http://www.w3.org/2000/svg">
<path d="M322.159 142.599C335.074 103.177 285.456 81.4275 265.066 103.178C238.558 59.6775 182.144 90.9431 182.144 90.9431C182.144 90.9431 151.558 56.9588 112.136 88.2244C97.8626 73.9509 55.0423 70.5525 56.4017 139.881C8.82355 143.959 9.50324 210.568 31.2532 220.763L345.269 247.951C375.855 235.717 387.409 154.154 322.159 142.599Z" fill="#EDD8B4"/>
<path d="M123.691 94.3415C127.089 65.115 70.6753 70.5525 79.5112 102.498C58.4409 109.974 73.394 141.92 90.3862 133.763C91.0659 158.912 133.206 152.795 127.089 126.287C142.722 133.084 156.316 90.9431 123.691 94.3415Z" fill="#FFF8D6"/>
<path d="M116.214 103.177C122.331 92.3025 101.941 80.0681 100.581 99.779C88.3471 89.5837 72.7143 118.131 94.4643 118.81C84.2689 134.443 110.777 143.959 115.535 129.006C136.605 126.967 130.488 99.779 116.214 103.177Z" fill="#EDD8B4"/>
<path d="M116.894 114.052C108.738 112.013 110.097 111.334 110.777 105.217C112.136 93.6619 105.339 93.6619 106.019 104.537C106.699 111.334 105.339 114.052 98.5425 108.615C89.7065 102.498 89.0268 109.295 97.1831 112.013C104.66 115.412 101.941 113.373 101.941 122.888C101.941 130.365 106.019 132.404 106.699 122.888C107.378 113.373 106.699 114.052 114.175 118.81C121.652 122.888 124.371 116.092 116.894 114.052Z" fill="#C9AE81"/>
<path d="M97.1829 169.107C112.816 155.513 74.7533 118.81 60.4798 156.193C30.5736 137.842 16.3001 192.896 45.5267 208.529C59.8001 216.685 142.042 211.248 97.1829 169.107Z" fill="#FFF8D6"/>
<path d="M65.9174 169.107C57.7611 156.873 33.2924 172.506 53.0033 184.74C10.183 204.451 130.488 218.724 93.1049 182.701C102.62 158.232 70.6752 151.435 65.9174 169.107Z" fill="#EDD8B4"/>
<path d="M78.1516 173.865C71.3547 181.342 71.3547 179.982 65.2375 176.584C53.6828 169.107 49.6047 180.662 62.5188 186.099C69.9954 188.818 69.3157 190.177 79.511 195.615C87.6672 199.693 91.7454 195.615 81.55 190.177C71.3547 184.74 72.0344 186.099 81.55 179.982C90.386 172.506 84.2688 166.388 78.1516 173.865Z" fill="#C9AE81"/>
<path d="M353.425 188.138C367.699 175.904 333.714 143.279 320.8 176.584C294.292 160.271 271.183 217.365 307.206 223.482C304.488 247.951 342.55 247.951 342.55 227.56C367.019 239.115 382.652 194.935 353.425 188.138Z" fill="#FFF8D6"/>
<path d="M325.558 188.138C318.081 177.263 295.652 190.857 314.003 201.732C297.691 209.209 318.081 237.076 329.636 216.006C340.511 232.998 362.261 211.248 350.706 199.693C358.183 178.623 329.636 172.506 325.558 188.138Z" fill="#EDD8B4"/>
<path d="M336.433 192.217C330.316 199.013 330.316 197.654 324.878 194.256C314.683 187.459 310.605 193.576 322.159 198.334C328.956 201.053 330.995 203.092 322.159 207.849C311.964 213.287 318.761 217.365 324.878 211.248C331.675 204.451 328.277 206.49 337.113 211.248C344.589 214.646 347.988 211.248 339.152 206.49C330.316 201.732 330.316 202.412 339.152 196.974C347.308 191.537 341.87 185.42 336.433 192.217Z" fill="#C9AE81"/>
<path d="M218.847 109.295C233.8 96.3806 197.777 62.3963 184.863 97.0603C156.995 80.0681 133.206 139.201 170.589 145.998C167.87 171.146 207.292 171.826 207.972 150.076C233.12 162.31 248.753 116.092 218.847 109.295Z" fill="#FFF8D6"/>
<path d="M189.62 109.295C182.144 97.74 159.034 112.013 177.386 123.568C160.394 131.045 181.464 160.271 193.698 138.521C204.573 156.193 227.683 133.763 215.448 121.529C224.284 99.0994 193.698 92.9822 189.62 109.295Z" fill="#EDD8B4"/>
<path d="M200.496 113.373C193.699 120.849 194.378 119.49 188.261 116.092C177.386 109.295 173.308 115.412 185.542 120.17C192.339 122.888 194.378 125.607 186.222 129.685C175.347 135.802 182.144 139.881 188.941 133.084C195.738 126.287 192.339 128.326 201.855 133.084C209.331 137.162 213.41 133.084 203.894 128.326C194.378 122.888 195.058 124.248 203.894 118.81C212.05 112.693 206.613 107.256 200.496 113.373Z" fill="#C9AE81"/>
<path d="M163.113 171.146C167.191 151.435 115.534 143.959 127.089 182.021C93.1048 184.74 107.378 232.318 146.8 232.318C202.534 231.638 192.339 158.232 163.113 171.146Z" fill="#FFF8D6"/>
<path d="M133.207 189.498C122.332 243.193 200.496 223.482 167.871 184.06C161.074 159.592 137.285 171.826 133.207 189.498Z" fill="#EDD8B4"/>
<path d="M150.199 185.42C149.519 195.615 142.042 190.857 136.605 195.615C120.972 209.209 163.113 222.123 169.91 197.654C171.269 191.537 152.238 198.334 155.636 188.138C159.714 177.943 151.558 176.584 150.199 185.42Z" fill="#C9AE81"/>
<path d="M283.418 124.927C287.496 105.217 236.519 98.4197 248.074 135.802C214.769 138.521 232.441 201.732 267.105 184.74C280.699 207.17 313.324 184.06 300.41 166.388C328.277 160.271 312.644 112.693 283.418 124.927Z" fill="#FFF8D6"/>
<path d="M259.628 142.599C246.035 137.842 236.519 163.67 258.949 161.631C250.113 177.943 285.457 189.498 281.378 164.349C301.769 172.506 306.527 139.881 288.855 137.842C281.378 113.373 252.831 126.287 259.628 142.599Z" fill="#EDD8B4"/>
<path d="M271.863 139.201C271.183 149.396 270.503 148.037 263.706 148.037C250.792 148.717 251.472 156.193 263.706 153.474C271.183 151.435 274.581 152.115 269.824 161.631C264.386 173.185 273.222 172.506 274.581 162.31C275.941 152.115 274.581 156.193 284.777 154.834C293.613 153.474 294.292 148.037 283.417 149.396C272.542 150.756 273.902 151.435 277.3 141.24C280.699 131.724 272.542 130.365 271.863 139.201Z" fill="#C9AE81"/>
<path d="M28.5346 213.967L82.2299 483.123H126.41L90.3862 213.967C87.6674 175.904 23.0971 175.904 28.5346 213.967Z" fill="#ED4C5C"/>
<path d="M90.386 213.967L126.409 483.123H170.589L152.238 213.967C152.238 175.904 87.6672 175.904 90.386 213.967Z" fill="#F9F9F9"/>
<path d="M152.238 213.967L170.589 483.123H214.769V213.967C216.808 175.904 152.238 175.904 152.238 213.967Z" fill="#ED4C5C"/>
<path d="M214.769 213.967V483.123H258.269L276.621 213.967C280.699 175.904 216.808 175.904 214.769 213.967Z" fill="#F9F9F9"/>
<path d="M258.269 483.123L286.136 464.092L299.05 222.802C303.128 193.576 278.659 182.701 275.941 213.967L258.269 483.123Z" fill="#C94747"/>
<path d="M309.925 447.779L322.839 231.638C327.597 204.451 303.808 193.576 299.73 222.803L286.816 464.092L309.925 447.779Z" fill="#E8E8E8"/>
<path d="M329.636 434.865L345.269 241.154C350.706 216.006 327.597 205.131 322.839 232.318L309.925 448.459L329.636 434.865Z" fill="#C94747"/>
<path d="M342.55 426.029L358.183 249.31C359.542 229.599 347.308 222.803 345.269 241.154L329.636 434.865L342.55 426.029Z" fill="#E8E8E8"/>
<g filter="url(#filter0_d_1_102)">
<path d="M153.632 133C160.593 133 167.268 135.769 172.19 140.696C177.112 145.624 179.877 152.308 179.877 159.277C179.877 164.139 178.434 168.606 176.203 172.416C176.203 172.416 166.755 169.788 153.632 169.788C140.509 169.788 131.061 172.416 131.061 172.416C128.83 168.606 127.386 164.139 127.386 159.277C127.386 152.308 130.152 145.624 135.074 140.696C139.996 135.769 146.671 133 153.632 133ZM232.368 133C246.934 133 258.614 144.693 258.614 159.277C258.614 164.139 257.17 168.606 254.939 172.416C254.939 172.416 245.491 169.788 232.368 169.788C219.246 169.788 209.797 172.416 209.797 172.416C207.566 168.606 206.123 164.139 206.123 159.277C206.123 144.693 217.802 133 232.368 133ZM193 313C216.803 313.019 240.015 305.58 259.383 291.725C278.751 277.871 293.303 258.296 301 235.745L283.678 229.701C270.424 268.591 233.943 294.606 193 294.606C152.057 294.606 115.576 268.591 102.322 229.701L85.0001 235.745C92.697 258.296 107.249 277.871 126.617 291.725C145.985 305.58 169.197 313.019 193 313Z" fill="#1A1F55"/>
</g>
<defs>
<filter id="filter0_d_1_102" x="81.0001" y="133" width="224" height="188" filterUnits="userSpaceOnUse" color-interpolation-filters="sRGB">
<feFlood flood-opacity="0" result="BackgroundImageFix"/>
<feColorMatrix in="SourceAlpha" type="matrix" values="0 0 0 0 0 0 0 0 0 0 0 0 0 0 0 0 0 0 127 0" result="hardAlpha"/>
<feOffset dy="4"/>
<feGaussianBlur stdDeviation="2"/>
<feComposite in2="hardAlpha" operator="out"/>
<feColorMatrix type="matrix" values="0 0 0 0 0 0 0 0 0 0 0 0 0 0 0 0 0 0 0.25 0"/>
<feBlend mode="normal" in2="BackgroundImageFix" result="effect1_dropShadow_1_102"/>
<feBlend mode="normal" in="SourceGraphic" in2="effect1_dropShadow_1_102" result="shape"/>
</filter>
</defs>
</svg>
