<svg width="40" height="37" viewBox="0 0 40 37" fill="none" xmlns="http://www.w3.org/2000/svg">
<path d="M21 5C12.3264 5 5 12.3264 5 21C5 29.6736 12.3264 37 21 37C29.6736 37 37 29.6736 37 21C37 12.3264 29.6736 5 21 5ZM21 13C23.7632 13 25.8 15.0352 25.8 17.8C25.8 20.5648 23.7632 22.6 21 22.6C18.2384 22.6 16.2 20.5648 16.2 17.8C16.2 15.0352 18.2384 13 21 13ZM12.8304 28.6352C14.2656 26.5232 16.6592 25.1152 19.4 25.1152H22.6C25.3424 25.1152 27.7344 26.5232 29.1696 28.6352C27.1248 30.824 24.224 32.2 21 32.2C17.776 32.2 14.8752 30.824 12.8304 28.6352Z" fill="#1A1F55"/>
</svg>
